#!OML:ASF F:\VICON\USERDATA\INSTALL\rory3\rory3.ASF
:FULLY-SPECIFIED
:DEGREES
338
root 10.8698 17.8571 -1.34718 -364.622 67.7516 -360.11
lowerback 11.3751 0.584409 -5.65054
upperback 0.972655 0.107748 0.263991
thorax -5.3757 0.199069 3.44888
lowerneck -12.0532 -9.20658 -14.024
upperneck 33.9198 -13.896 13.3689
head 16.2119 -5.80895 5.78787
rclavicle 4.61056e-014 -1.63003e-014
rhumerus -43.7179 -17.9338 -74.461
rradius 36.492
rwrist 7.13693
rhand -18.4521 7.33696
rfingers 7.12502
rthumb 7.83399 -22.4979
lclavicle 4.61056e-014 -1.63003e-014
lhumerus -30.9594 4.34567 81.1712
lradius 25.9673
lwrist -7.41925
lhand -21.5231 29.3022
lfingers 7.12502
lthumb 4.86927 59.2262
rfemur -7.10559 -2.43915 4.1217
rtibia 30.4298
rfoot 1.1837 -17.0376
rtoes -2.40674
lfemur 1.19576 -1.91741 -13.7256
ltibia 19.2982
lfoot -9.64863 6.55639
ltoes -13.6414
339
root 10.8481 17.837 -1.25025 -364.515 67.4036 -359.826
lowerback 11.3517 0.580891 -5.72159
upperback 1.00275 0.0917966 0.16548
thorax -5.32916 0.190106 3.38742
lowerneck -12.0519 -9.23881 -14.0387
upperneck 33.9217 -13.9693 13.4199
head 16.2358 -5.83807 5.79858
rclavicle -2.4289e-014 1.90833e-014
rhumerus -43.7887 -18.0374 -74.4329
rradius 36.5659
rwrist 7.06476
rhand -18.3434 7.36013
rfingers 7.12502
rthumb 7.93893 -22.4708
lclavicle -2.4289e-014 1.90833e-014
lhumerus -30.9866 4.22419 80.9166
lradius 26.0291
lwrist -7.30699
lhand -21.3027 29.0078
lfingers 7.12502
lthumb 5.08208 58.9269
rfemur -6.71161 -2.26523 3.96042
rtibia 30.2982
rfoot 0.231999 -15.1261
rtoes -7.64759
lfemur 1.42755 -2.39504 -13.5855
ltibia 19.545
lfoot -9.60729 7.26811
ltoes -14.9707
340
root 10.8214 17.8169 -1.14949 -364.599 67.0935 -359.809
lowerback 11.3075 0.544532 -5.81393
upperback 1.00867 0.0346626 0.161355
thorax -5.29248 0.162775 3.44414
lowerneck -12.0141 -9.21331 -14.1078
upperneck 33.9136 -13.9327 13.4491
head 16.2251 -5.83263 5.83201
rclavicle 1.40267e-014 1.59028e-015
rhumerus -43.896 -18.1093 -74.3758
rradius 36.6405
rwrist 7.11762
rhand -18.6228 7.38929
rfingers 7.12502
rthumb 7.66922 -22.4516
lclavicle 1.40267e-014 1.59028e-015
lhumerus -31.1593 3.64263 80.8914
lradius 26.3466
lwrist -6.66815
lhand -21.295 29.1269
lfingers 7.12502
lthumb 5.08947 59.0458
rfemur -6.36908 -2.19286 3.97671
rtibia 30.1429
rfoot -0.900188 -13.6755
rtoes -11.9254
lfemur 1.55466 -2.58379 -13.2558
ltibia 19.7916
lfoot -9.59027 7.66501
ltoes -16.1909
341
root 10.7884 17.7942 -1.04787 -364.615 66.848 -359.715
lowerback 11.3659 0.472025 -5.92805
upperback 0.98916 -0.0816643 0.143468
thorax -5.33376 0.109539 3.50837
lowerneck -11.9832 -9.17894 -14.0372
upperneck 33.9528 -13.8689 13.3254
head 16.2015 -5.81443 5.77807
rclavicle -1.80273e-014 3.18055e-015
rhumerus -43.9186 -18.009 -74.4131
rradius 36.5998
rwrist 7.14934
rhand -18.8557 7.36059
rfingers 7.12502
rthumb 7.44447 -22.4884
lclavicle -1.80273e-014 3.18055e-015
lhumerus -31.3008 3.34149 80.7977
lradius 26.5754
lwrist -6.3753
lhand -21.3324 29.5049
lfingers 7.12502
lthumb 5.05342 59.4247
rfemur -6.00047 -1.99288 4.04504
rtibia 29.9598
rfoot -2.27031 -13.1256
rtoes -14.578
lfemur 1.61966 -2.53914 -12.9104
ltibia 20.0741
lfoot -9.47739 7.86941
ltoes -18.6264
342
root 10.7557 17.7726 -0.945536 -364.84 66.5946 -359.883
lowerback 11.3706 0.387945 -5.93506
upperback 0.995724 -0.193963 0.150288
thorax -5.31762 0.0538463 3.53722
lowerneck -12.0725 -9.18695 -13.981
upperneck 34.0087 -13.8604 13.2085
head 16.2304 -5.81631 5.71576
rclavicle 7.23576e-014 3.97569e-015
rhumerus -43.8352 -17.9999 -74.4383
rradius 36.5316
rwrist 7.1067
rhand -18.9928 7.28536
rfingers 7.12502
rthumb 7.31207 -22.5683
lclavicle 7.23576e-014 3.97569e-015
lhumerus -31.2812 3.70415 80.5089
lradius 26.6145
lwrist -6.42165
lhand -21.3416 29.5723
lfingers 7.12502
lthumb 5.04449 59.4923
rfemur -5.65386 -1.88493 4.26402
rtibia 29.6559
rfoot -3.39734 -12.73
rtoes -16.8563
lfemur 1.5928 -2.43744 -12.4396
ltibia 20.4501
lfoot -9.33296 8.0844
ltoes -20.7016
343
root 10.7227 17.758 -0.839315 -365.021 66.4411 -360.077
lowerback 11.3192 0.298393 -5.95708
upperback 0.986477 -0.312093 0.165567
thorax -5.28603 -0.00462255 3.58395
lowerneck -12.1566 -9.21569 -14.0289
upperneck 34.0202 -13.8942 13.2083
head 16.2689 -5.8365 5.71448
rclavicle 7.42833e-014 -1.31198e-014
rhumerus -43.8246 -18.2143 -74.3266
rradius 36.4961
rwrist 7.10136
rhand -19.5067 7.38125
rfingers 7.12502
rthumb 6.81602 -22.489
lclavicle 7.42833e-014 -1.31198e-014
lhumerus -31.2765 3.60436 80.403
lradius 26.7499
lwrist -5.99545
lhand -21.4382 29.7733
lfingers 7.12502
lthumb 4.95125 59.6954
rfemur -5.34272 -2.00626 4.48645
rtibia 29.2397
rfoot -4.06657 -11.7945
rtoes -18.7131
lfemur 1.46371 -2.39988 -11.9285
ltibia 20.8367
lfoot -9.26567 8.11977
ltoes -21.7139
